<svg width="157" height="74" viewBox="0 0 157 74" fill="none" xmlns="http://www.w3.org/2000/svg">
<path d="M0.620117 18.2793H5.09294V39.5539H0.620117V18.2793Z" fill="#DBDCDD"/>
<path d="M23.2073 31.8985C23.2073 31.9558 23.1786 32.3572 23.1213 33.1027H11.4518C11.6621 34.0584 12.1591 34.8134 12.9428 35.3678C13.7265 35.9221 14.7013 36.1992 15.8673 36.1992C16.6701 36.1992 17.3774 36.0846 17.989 35.8552C18.6198 35.6067 19.2028 35.2244 19.738 34.7083L22.1178 37.2888C20.6651 38.9517 18.5433 39.7832 15.7526 39.7832C14.0132 39.7832 12.4745 39.4487 11.1364 38.7797C9.79841 38.0916 8.76622 37.1454 8.03987 35.9412C7.31351 34.737 6.95034 33.3703 6.95034 31.8411C6.95034 30.3311 7.30396 28.9739 8.0112 27.7697C8.73755 26.5464 9.72195 25.6002 10.9644 24.9312C12.226 24.2431 13.6309 23.899 15.1792 23.899C16.6892 23.899 18.0559 24.2239 19.2793 24.8738C20.5026 25.5237 21.4583 26.4604 22.1464 27.6837C22.8537 28.8879 23.2073 30.2928 23.2073 31.8985ZM15.2078 27.2823C14.1948 27.2823 13.3442 27.569 12.656 28.1424C11.9679 28.7159 11.5474 29.4996 11.3945 30.4935H18.9925C18.8396 29.5187 18.4191 28.7445 17.731 28.1711C17.0428 27.5786 16.2018 27.2823 15.2078 27.2823Z" fill="#DBDCDD"/>
<path d="M34.9874 38.8084C34.5478 39.1333 34.003 39.3818 33.3531 39.5539C32.7224 39.7068 32.0533 39.7832 31.3461 39.7832C29.5111 39.7832 28.0871 39.3149 27.074 38.3783C26.08 37.4417 25.583 36.0654 25.583 34.2496V27.9131H23.2033V24.4724H25.583V20.7164H30.0559V24.4724H33.8979V27.9131H30.0559V34.1922C30.0559 34.8421 30.2183 35.3486 30.5433 35.7118C30.8873 36.0559 31.3652 36.2279 31.9769 36.2279C32.6841 36.2279 33.2862 36.0368 33.7832 35.6545L34.9874 38.8084Z" fill="#DBDCDD"/>
<path d="M56.1063 23.899C58.0369 23.899 59.5661 24.4724 60.6938 25.6193C61.8407 26.7471 62.4141 28.4483 62.4141 30.7229V39.5539H57.9413V31.411C57.9413 30.1877 57.6833 29.2798 57.1672 28.6872C56.6702 28.0755 55.9534 27.7697 55.0168 27.7697C53.9655 27.7697 53.134 28.1138 52.5223 28.8019C51.9107 29.4709 51.6048 30.4744 51.6048 31.8124V39.5539H47.132V31.411C47.132 28.9835 46.1572 27.7697 44.2075 27.7697C43.1753 27.7697 42.3534 28.1138 41.7417 28.8019C41.13 29.4709 40.8242 30.4744 40.8242 31.8124V39.5539H36.3514V24.1284H40.6235V25.906C41.1969 25.2561 41.8946 24.7591 42.7165 24.4151C43.5576 24.071 44.4751 23.899 45.469 23.899C46.5586 23.899 47.543 24.1188 48.4222 24.5584C49.3015 24.979 50.0087 25.6002 50.544 26.4221C51.1747 25.6193 51.968 24.9981 52.9237 24.5584C53.8986 24.1188 54.9594 23.899 56.1063 23.899Z" fill="#DBDCDD"/>
<path d="M80.5545 31.8985C80.5545 31.9558 80.5258 32.3572 80.4685 33.1027H68.799C69.0093 34.0584 69.5062 34.8134 70.2899 35.3678C71.0736 35.9221 72.0485 36.1992 73.2145 36.1992C74.0173 36.1992 74.7245 36.0846 75.3362 35.8552C75.967 35.6067 76.55 35.2244 77.0852 34.7083L79.465 37.2888C78.0122 38.9517 75.8905 39.7832 73.0998 39.7832C71.3604 39.7832 69.8216 39.4487 68.4836 38.7797C67.1456 38.0916 66.1134 37.1454 65.387 35.9412C64.6607 34.737 64.2975 33.3703 64.2975 31.8411C64.2975 30.3311 64.6511 28.9739 65.3584 27.7697C66.0847 26.5464 67.0691 25.6002 68.3116 24.9312C69.5731 24.2431 70.9781 23.899 72.5264 23.899C74.0364 23.899 75.4031 24.2239 76.6264 24.8738C77.8498 25.5237 78.8055 26.4604 79.4936 27.6837C80.2009 28.8879 80.5545 30.2928 80.5545 31.8985ZM72.555 27.2823C71.5419 27.2823 70.6913 27.569 70.0032 28.1424C69.3151 28.7159 68.8946 29.4996 68.7417 30.4935H76.3397C76.1868 29.5187 75.7663 28.7445 75.0782 28.1711C74.39 27.5786 73.549 27.2823 72.555 27.2823Z" fill="#DBDCDD"/>
<path d="M106.706 24.1284L103.638 39.5539H99.3949L99.6816 38.0342C98.4009 39.2002 96.8239 39.7832 94.9507 39.7832C93.7465 39.7832 92.6378 39.5061 91.6248 38.9517C90.6117 38.3974 89.7993 37.6042 89.1877 36.572C88.5951 35.5207 88.2988 34.2878 88.2988 32.8733C88.2988 31.1721 88.6716 29.6429 89.417 28.2858C90.1816 26.9095 91.2138 25.8391 92.5136 25.0745C93.8134 24.2908 95.247 23.899 96.8144 23.899C99.1846 23.899 100.857 24.6731 101.832 26.2214L102.233 24.1284H106.706ZM96.327 36.0846C97.2062 36.0846 97.9899 35.8743 98.6781 35.4538C99.3662 35.0141 99.9014 34.412 100.284 33.6474C100.666 32.8829 100.857 32.0036 100.857 31.0096C100.857 29.9583 100.542 29.1268 99.911 28.5152C99.2993 27.9035 98.4391 27.5977 97.3305 27.5977C96.4512 27.5977 95.6675 27.8175 94.9794 28.2571C94.2913 28.6776 93.756 29.2702 93.3738 30.0348C92.9915 30.7994 92.8003 31.6786 92.8003 32.6726C92.8003 33.7239 93.1062 34.5554 93.7178 35.1671C94.3486 35.7787 95.2183 36.0846 96.327 36.0846Z" fill="url(#paint0_linear)"/>
<path d="M106.706 24.1284L103.638 39.5539H99.3949L99.6816 38.0342C98.4009 39.2002 96.8239 39.7832 94.9507 39.7832C93.7465 39.7832 92.6378 39.5061 91.6248 38.9517C90.6117 38.3974 89.7993 37.6042 89.1877 36.572C88.5951 35.5207 88.2988 34.2878 88.2988 32.8733C88.2988 31.1721 88.6716 29.6429 89.417 28.2858C90.1816 26.9095 91.2138 25.8391 92.5136 25.0745C93.8134 24.2908 95.247 23.899 96.8144 23.899C99.1846 23.899 100.857 24.6731 101.832 26.2214L102.233 24.1284H106.706ZM96.327 36.0846C97.2062 36.0846 97.9899 35.8743 98.6781 35.4538C99.3662 35.0141 99.9014 34.412 100.284 33.6474C100.666 32.8829 100.857 32.0036 100.857 31.0096C100.857 29.9583 100.542 29.1268 99.911 28.5152C99.2993 27.9035 98.4391 27.5977 97.3305 27.5977C96.4512 27.5977 95.6675 27.8175 94.9794 28.2571C94.2913 28.6776 93.756 29.2702 93.3738 30.0348C92.9915 30.7994 92.8003 31.6786 92.8003 32.6726C92.8003 33.7239 93.1062 34.5554 93.7178 35.1671C94.3486 35.7787 95.2183 36.0846 96.327 36.0846Z" fill="black" fill-opacity="0.2"/>
<path d="M112.252 39.7832C110.914 39.7832 109.643 39.6399 108.439 39.3532C107.254 39.0473 106.327 38.6555 105.658 38.1776L107.378 34.9377C108.047 35.3773 108.859 35.7309 109.815 35.9985C110.79 36.2661 111.765 36.3999 112.74 36.3999C113.753 36.3999 114.508 36.2757 115.005 36.0272C115.502 35.7596 115.75 35.3869 115.75 34.909C115.75 34.5267 115.53 34.2496 115.091 34.0775C114.651 33.9055 113.944 33.7239 112.969 33.5328C111.86 33.3225 110.943 33.0931 110.216 32.8446C109.509 32.5961 108.888 32.1947 108.353 31.6404C107.837 31.067 107.579 30.2928 107.579 29.318C107.579 27.6168 108.286 26.2883 109.7 25.3326C111.134 24.3769 113.007 23.899 115.32 23.899C116.391 23.899 117.432 24.0137 118.445 24.2431C119.458 24.4724 120.319 24.7878 121.026 25.1892L119.42 28.4578C118.159 27.6741 116.639 27.2823 114.861 27.2823C113.886 27.2823 113.141 27.4256 112.625 27.7124C112.128 27.9991 111.879 28.3623 111.879 28.8019C111.879 29.2033 112.099 29.4996 112.539 29.6907C112.979 29.8628 113.714 30.0539 114.747 30.2642C115.836 30.4744 116.725 30.7038 117.413 30.9523C118.12 31.1817 118.732 31.5735 119.248 32.1278C119.764 32.6822 120.022 33.4372 120.022 34.3929C120.022 36.1132 119.296 37.4417 117.843 38.3783C116.41 39.3149 114.546 39.7832 112.252 39.7832Z" fill="url(#paint1_linear)"/>
<path d="M112.252 39.7832C110.914 39.7832 109.643 39.6399 108.439 39.3532C107.254 39.0473 106.327 38.6555 105.658 38.1776L107.378 34.9377C108.047 35.3773 108.859 35.7309 109.815 35.9985C110.79 36.2661 111.765 36.3999 112.74 36.3999C113.753 36.3999 114.508 36.2757 115.005 36.0272C115.502 35.7596 115.75 35.3869 115.75 34.909C115.75 34.5267 115.53 34.2496 115.091 34.0775C114.651 33.9055 113.944 33.7239 112.969 33.5328C111.86 33.3225 110.943 33.0931 110.216 32.8446C109.509 32.5961 108.888 32.1947 108.353 31.6404C107.837 31.067 107.579 30.2928 107.579 29.318C107.579 27.6168 108.286 26.2883 109.7 25.3326C111.134 24.3769 113.007 23.899 115.32 23.899C116.391 23.899 117.432 24.0137 118.445 24.2431C119.458 24.4724 120.319 24.7878 121.026 25.1892L119.42 28.4578C118.159 27.6741 116.639 27.2823 114.861 27.2823C113.886 27.2823 113.141 27.4256 112.625 27.7124C112.128 27.9991 111.879 28.3623 111.879 28.8019C111.879 29.2033 112.099 29.4996 112.539 29.6907C112.979 29.8628 113.714 30.0539 114.747 30.2642C115.836 30.4744 116.725 30.7038 117.413 30.9523C118.12 31.1817 118.732 31.5735 119.248 32.1278C119.764 32.6822 120.022 33.4372 120.022 34.3929C120.022 36.1132 119.296 37.4417 117.843 38.3783C116.41 39.3149 114.546 39.7832 112.252 39.7832Z" fill="black" fill-opacity="0.2"/>
<path d="M132.215 30.8376L137.519 39.5539H132.33L128.66 33.5614L125.936 35.8265L125.19 39.5539H120.718L124.961 18.2793H129.434L127.054 30.1781L134.451 24.1284H140.272L132.215 30.8376Z" fill="url(#paint2_linear)"/>
<path d="M132.215 30.8376L137.519 39.5539H132.33L128.66 33.5614L125.936 35.8265L125.19 39.5539H120.718L124.961 18.2793H129.434L127.054 30.1781L134.451 24.1284H140.272L132.215 30.8376Z" fill="black" fill-opacity="0.2"/>
<path d="M81.7046 15.1826V8.01466C81.7046 4.84764 84.272 2.28027 87.439 2.28027H149.084C152.251 2.28027 154.818 4.84764 154.818 8.01466V48.1553C154.818 51.3223 152.251 53.8897 149.084 53.8897H139.048L142.402 69.5405C142.695 70.9085 141.056 71.8433 140.028 70.8943L124.712 56.7569H87.439C84.272 56.7569 81.7046 54.1895 81.7046 51.0225V48.1553" stroke="url(#paint3_linear)" stroke-width="4.30079"/>
<path d="M81.7046 15.1826V8.01466C81.7046 4.84764 84.272 2.28027 87.439 2.28027H149.084C152.251 2.28027 154.818 4.84764 154.818 8.01466V48.1553C154.818 51.3223 152.251 53.8897 149.084 53.8897H139.048L142.402 69.5405C142.695 70.9085 141.056 71.8433 140.028 70.8943L124.712 56.7569H87.439C84.272 56.7569 81.7046 54.1895 81.7046 51.0225V48.1553" stroke="black" stroke-opacity="0.2" stroke-width="4.30079"/>
<defs>
<linearGradient id="paint0_linear" x1="88.2988" y1="18.2793" x2="100.378" y2="52.3909" gradientUnits="userSpaceOnUse">
<stop stop-color="#485BFF"/>
<stop offset="1" stop-color="#FF59F8"/>
</linearGradient>
<linearGradient id="paint1_linear" x1="88.2988" y1="18.2793" x2="100.378" y2="52.3909" gradientUnits="userSpaceOnUse">
<stop stop-color="#485BFF"/>
<stop offset="1" stop-color="#FF59F8"/>
</linearGradient>
<linearGradient id="paint2_linear" x1="88.2988" y1="18.2793" x2="100.378" y2="52.3909" gradientUnits="userSpaceOnUse">
<stop stop-color="#485BFF"/>
<stop offset="1" stop-color="#FF59F8"/>
</linearGradient>
<linearGradient id="paint3_linear" x1="81.7046" y1="2.28027" x2="141.916" y2="76.8272" gradientUnits="userSpaceOnUse">
<stop stop-color="#485BFF"/>
<stop offset="1" stop-color="#FF59F8"/>
</linearGradient>
</defs>
</svg>
